<svg width="38" height="38" viewBox="0 0 38 38" fill="none" xmlns="http://www.w3.org/2000/svg">
<path d="M19 3.0172C27.8464 3.0172 34.9828 10.1536 34.9828 19C34.9828 27.8464 27.8464 34.9828 19 34.9828C10.1536 34.9828 3.0172 27.8464 3.0172 19C3.0172 10.1536 10.1536 3.0172 19 3.0172ZM19 0.380001C8.759 0.380001 0.380005 8.759 0.380005 19C0.380005 29.241 8.759 37.62 19 37.62C29.241 37.62 37.62 29.241 37.62 19C37.62 8.759 29.241 0.380001 19 0.380001Z" fill="#172231"/>
<path d="M14.9644 25.2054L12.483 17.6054L19 12.7946L25.517 17.6054L23.0356 25.2054H14.9644Z" fill="#172231"/>
<path d="M22.4124 1.9304L24.4302 5.65441L19 7.98381L13.5698 5.65441L15.5876 1.9304H22.4124Z" fill="#172231"/>
<path d="M3.7924 10.4652L7.9838 9.69L8.6032 15.5876L4.5714 20.0868L1.6226 16.9822L3.7924 10.4652Z" fill="#172231"/>
<path d="M6.12181 30.7914L6.74121 26.6038L12.483 27.8464L15.5876 32.965L11.7078 34.827L6.12181 30.7914Z" fill="#172231"/>
<path d="M26.2922 34.827L22.4124 32.965L25.517 27.8464L31.2588 26.6038L31.8782 30.7914L26.2922 34.827Z" fill="#172231"/>
<path d="M36.3774 16.9822L33.4286 20.0868L29.3968 15.5876L30.0162 9.69L34.2076 10.4652L36.3774 16.9822Z" fill="#172231"/>
</svg>
