<svg width="38" height="38" viewBox="0 0 38 38" fill="none" xmlns="http://www.w3.org/2000/svg">
<path d="M19 3.0172C27.8464 3.0172 34.9828 10.1536 34.9828 19C34.9828 27.8464 27.8464 34.9828 19 34.9828C10.1536 34.9828 3.0172 27.8464 3.0172 19C3.0172 10.1536 10.1536 3.0172 19 3.0172ZM19 0.380005C8.759 0.380005 0.380005 8.759 0.380005 19C0.380005 29.241 8.759 37.62 19 37.62C29.241 37.62 37.62 29.241 37.62 19C37.62 8.759 29.241 0.380005 19 0.380005Z" fill="white"/>
<path d="M14.9644 25.2054L12.483 17.6054L19 12.7946L25.517 17.6054L23.0356 25.2054H14.9644Z" fill="white"/>
<path d="M22.4124 1.93042L24.4302 5.65442L19 7.98383L13.5698 5.65442L15.5876 1.93042H22.4124Z" fill="white"/>
<path d="M3.79236 10.4652L7.98375 9.69L8.60315 15.5876L4.57136 20.0868L1.62256 16.9822L3.79236 10.4652Z" fill="white"/>
<path d="M6.12183 30.7914L6.74123 26.6038L12.483 27.8464L15.5876 32.965L11.7078 34.827L6.12183 30.7914Z" fill="white"/>
<path d="M26.2922 34.827L22.4124 32.965L25.517 27.8464L31.2588 26.6038L31.8782 30.7914L26.2922 34.827Z" fill="white"/>
<path d="M36.3775 16.9822L33.4287 20.0868L29.3969 15.5876L30.0163 9.69L34.2077 10.4652L36.3775 16.9822Z" fill="white"/>
</svg>
